<?xml version="1.0" encoding="UTF-8"?>
<!DOCTYPE svg PUBLIC "-//W3C//DTD SVG 1.1//EN" "http://www.w3.org/Graphics/SVG/1.1/DTD/svg11.dtd">
<svg xmlns="http://www.w3.org/2000/svg" version="1.1" width="480px" height="416px" style="shape-rendering:geometricPrecision; text-rendering:geometricPrecision; image-rendering:optimizeQuality; fill-rule:evenodd; clip-rule:evenodd" xmlns:xlink="http://www.w3.org/1999/xlink">
<g><path style="opacity:1" fill="#ce5554" d="M 223.5,-0.5 C 244.833,-0.5 266.167,-0.5 287.5,-0.5C 287.5,10.1667 287.5,20.8333 287.5,31.5C 298.167,31.5 308.833,31.5 319.5,31.5C 319.5,63.5 319.5,95.5 319.5,127.5C 330.167,127.5 340.833,127.5 351.5,127.5C 351.5,116.833 351.5,106.167 351.5,95.5C 372.833,95.5 394.167,95.5 415.5,95.5C 415.5,106.167 415.5,116.833 415.5,127.5C 426.167,127.5 436.833,127.5 447.5,127.5C 447.5,138.167 447.5,148.833 447.5,159.5C 458.167,159.5 468.833,159.5 479.5,159.5C 479.5,180.833 479.5,202.167 479.5,223.5C 468.833,223.5 458.167,223.5 447.5,223.5C 447.5,234.167 447.5,244.833 447.5,255.5C 436.833,255.5 426.167,255.5 415.5,255.5C 415.5,266.167 415.5,276.833 415.5,287.5C 394.167,287.5 372.833,287.5 351.5,287.5C 351.5,276.833 351.5,266.167 351.5,255.5C 340.833,255.5 330.167,255.5 319.5,255.5C 319.5,276.833 319.5,298.167 319.5,319.5C 330.167,319.5 340.833,319.5 351.5,319.5C 351.5,351.5 351.5,383.5 351.5,415.5C 308.833,415.5 266.167,415.5 223.5,415.5C 223.5,394.167 223.5,372.833 223.5,351.5C 202.167,351.5 180.833,351.5 159.5,351.5C 159.5,362.167 159.5,372.833 159.5,383.5C 138.167,383.5 116.833,383.5 95.5,383.5C 95.5,372.833 95.5,362.167 95.5,351.5C 84.8333,351.5 74.1667,351.5 63.5,351.5C 63.5,340.833 63.5,330.167 63.5,319.5C 52.8333,319.5 42.1667,319.5 31.5,319.5C 31.5,308.833 31.5,298.167 31.5,287.5C 42.1667,287.5 52.8333,287.5 63.5,287.5C 63.5,276.833 63.5,266.167 63.5,255.5C 74.1667,255.5 84.8333,255.5 95.5,255.5C 95.5,234.167 95.5,212.833 95.5,191.5C 74.1667,191.5 52.8333,191.5 31.5,191.5C 31.5,180.833 31.5,170.167 31.5,159.5C 20.8333,159.5 10.1667,159.5 -0.5,159.5C -0.5,138.167 -0.5,116.833 -0.5,95.5C 10.1667,95.5 20.8333,95.5 31.5,95.5C 31.5,84.8333 31.5,74.1667 31.5,63.5C 63.5,63.5 95.5,63.5 127.5,63.5C 127.5,74.1667 127.5,84.8333 127.5,95.5C 148.833,95.5 170.167,95.5 191.5,95.5C 191.5,74.1667 191.5,52.8333 191.5,31.5C 202.167,31.5 212.833,31.5 223.5,31.5C 223.5,20.8333 223.5,10.1667 223.5,-0.5 Z"/></g>
<g><path style="opacity:1" fill="#e7d331" d="M 223.5,127.5 C 244.833,127.5 266.167,127.5 287.5,127.5C 287.5,138.167 287.5,148.833 287.5,159.5C 298.167,159.5 308.833,159.5 319.5,159.5C 319.5,180.833 319.5,202.167 319.5,223.5C 308.833,223.5 298.167,223.5 287.5,223.5C 287.5,234.167 287.5,244.833 287.5,255.5C 276.833,255.5 266.167,255.5 255.5,255.5C 255.5,266.167 255.5,276.833 255.5,287.5C 234.167,287.5 212.833,287.5 191.5,287.5C 191.5,276.833 191.5,266.167 191.5,255.5C 180.833,255.5 170.167,255.5 159.5,255.5C 159.5,234.167 159.5,212.833 159.5,191.5C 170.167,191.5 180.833,191.5 191.5,191.5C 191.5,180.833 191.5,170.167 191.5,159.5C 202.167,159.5 212.833,159.5 223.5,159.5C 223.5,148.833 223.5,138.167 223.5,127.5 Z"/></g>
</svg>
